<?xml version="1.0" encoding="UTF-8"?>
<svg id="Capa_1" data-name="Capa 1" xmlns="http://www.w3.org/2000/svg" viewBox="0 0 1088.35 301.38">
  <path d="m33.85,71.71h178v-38.71H33.85v38.71Zm0,51.65h-.35v144.53h38.71v-106.18h96.15v-38.71H33.85v.35Zm305.85,144.53h41.65V33.41h-41.65v234.47ZM660.74,33.38l-110.38,118.31V33.41h-41.65v234.47h41.65v-55.23l166.85-179.27h-56.47Zm-52.88,162l58,73h52l-82-103-28,30Zm218.62,72.68h44.47l51.91-124.68-22-60-74.38,184.68Zm142.59-234.65h-46.21l85.03,234.97h46.97l-85.79-234.97Z"/>
</svg>